# xmcd
#
# Track frame offsets:
#	150
#	19613
#	41538
#	73147
#	90956
#	122434
#	152918
#	186831
#	209322
#	228791
#	246540
#	263333
#	278984
#	294507
#
# Disc length: 4261 seconds
#
# Revision: 1
# Processed by: cddbd v1.5PL3 Copyright (c) Steve Scherf et al.
# Submitted via: audiograbber 1.82.01
#
DISCID=bc10a30e
DTITLE=Eric Clapton - Archives Pathfinder - Outtakes - Mid Valley Records - Dis
DTITLE=c 3
DYEAR=1900
DGENRE=
TTITLE0=Eric Clapton - Motherless Children (Jam)
TTITLE1=Eric Clapton - Motherless Children (Key of 'E')
TTITLE2=Eric Clapton - Meet Me #1 (Instrumental Jam 1)
TTITLE3=Eric Clapton - Meet Me #2 (Instrumental Jam 2)
TTITLE4=Eric Clapton - Meet Me #3 (With Vocals)
TTITLE5=Eric Clapton - I Shot the Sheriff (Instrumental No Cut Long Version)
TTITLE6=Eric Clapton - Mainline Florida (Vocal George Terry Early Version)
TTITLE7=Eric Clapton - Let it Grow (Instrumental)
TTITLE8=Eric Clapton - I Can't Hold Out (Backing Track)
TTITLE9=Eric Clapton - Instrumental #1 (Key of 'A')
TTITLE10=Eric Clapton - Instrumental #2 (Key of 'G')
TTITLE11=Eric Clapton - Please Be With Me (Offical Rough Mix)
TTITLE12=Eric Clapton - Gypsy (Early Please Be With Me, EC Solo Acoustic Versio
TTITLE12=n)
TTITLE13=Eric Clapton - Ain't That Lovin' You (Originally Unreleased Song)
EXTD=
EXTT0=
EXTT1=
EXTT2=
EXTT3=
EXTT4=
EXTT5=
EXTT6=
EXTT7=
EXTT8=
EXTT9=
EXTT10=
EXTT11=
EXTT12=
EXTT13=
PLAYORDER=
